<?xml version="1.0" encoding="UTF-8"?>
<svg width="800" height="500" viewBox="0 0 800 500" xmlns="http://www.w3.org/2000/svg">
  <style>
    @keyframes pulse {
      0% { transform: scale(1); }
      50% { transform: scale(1.05); }
      100% { transform: scale(1); }
    }
    @keyframes colorCycle {
      0% { fill: #e74c3c; }
      25% { fill: #3498db; }
      50% { fill: #2ecc71; }
      75% { fill: #f39c12; }
      100% { fill: #e74c3c; }
    }
    @keyframes spin {
      from { transform: rotate(0deg); }
      to { transform: rotate(360deg); }
    }
    @keyframes dash {
      to { stroke-dashoffset: 1000; }
    }
    @keyframes float {
      0% { transform: translateY(0px); }
      50% { transform: translateY(-10px); }
      100% { transform: translateY(0px); }
    }
    @keyframes fadeIn {
      from { opacity: 0; }
      to { opacity: 1; }
    }
    @keyframes wavyPath {
      0% { d: path("M 10 50 Q 25 40, 40 50 Q 55 60, 70 50 Q 85 40, 100 50"); }
      50% { d: path("M 10 50 Q 25 60, 40 50 Q 55 40, 70 50 Q 85 60, 100 50"); }
      100% { d: path("M 10 50 Q 25 40, 40 50 Q 55 60, 70 50 Q 85 40, 100 50"); }
    }
    .title { font-family: Arial, sans-serif; font-size: 24px; font-weight: bold; animation: fadeIn 2s; }
    .subtitle { font-family: Arial, sans-serif; font-size: 16px; animation: fadeIn 3s; }
    .neural-node { animation: pulse 3s infinite; }
    .emotion-orb { animation: colorCycle 10s infinite; }
    .gear { animation: spin 10s linear infinite; transform-origin: center; }
    .flow-line { stroke-dasharray: 20; animation: dash 20s linear infinite; }
    .output { animation: float 4s ease-in-out infinite; }
    .wavy { animation: wavyPath 5s ease-in-out infinite; }
  </style>

  <!-- Background -->
  <rect width="800" height="500" fill="#fafafa" />
  
  <!-- Title -->
  <text x="400" y="50" text-anchor="middle" class="title" fill="#2c3e50">
    Emotion Amplification Content Generation
  </text>
  <text x="400" y="80" text-anchor="middle" class="subtitle" fill="#34495e">
    Using GAN and VAE hybrid models to create personalized emotional content
  </text>
  
  <!-- Input Emotion Data -->
  <g transform="translate(100, 180)">
    <rect width="150" height="200" rx="10" ry="10" fill="#ecf0f1" stroke="#bdc3c7" stroke-width="2" />
    <text x="75" y="30" text-anchor="middle" font-family="Arial, sans-serif" font-size="14" font-weight="bold">Input Emotion Data</text>
    
    <!-- Emotion visualization -->
    <g transform="translate(30, 70)">
      <circle cx="0" cy="0" r="20" class="emotion-orb" fill="#e74c3c" />
      <text x="0" y="5" text-anchor="middle" font-family="Arial, sans-serif" font-size="16">Joy</text>
      <text x="0" y="25" text-anchor="middle" font-family="Arial, sans-serif" font-size="10">0.8</text>
    </g>
    <g transform="translate(90, 70)">
      <circle cx="0" cy="0" r="15" class="emotion-orb" fill="#3498db" />
      <text x="0" y="5" text-anchor="middle" font-family="Arial, sans-serif" font-size="16">Sad</text>
      <text x="0" y="25" text-anchor="middle" font-family="Arial, sans-serif" font-size="10">0.2</text>
    </g>
    <g transform="translate(30, 120)">
      <circle cx="0" cy="0" r="15" class="emotion-orb" fill="#f39c12" />
      <text x="0" y="5" text-anchor="middle" font-family="Arial, sans-serif" font-size="16">Fear</text>
      <text x="0" y="25" text-anchor="middle" font-family="Arial, sans-serif" font-size="10">0.1</text>
    </g>
    <g transform="translate(90, 120)">
      <circle cx="0" cy="0" r="10" class="emotion-orb" fill="#2ecc71" />
      <text x="0" y="5" text-anchor="middle" font-family="Arial, sans-serif" font-size="16">Trust</text>
      <text x="0" y="25" text-anchor="middle" font-family="Arial, sans-serif" font-size="10">0.5</text>
    </g>
    
    <!-- User preferences -->
    <rect x="20" y="150" width="110" height="40" rx="5" ry="5" fill="#d6eaf8" stroke="#a9cce3" stroke-width="1" />
    <text x="75" y="170" text-anchor="middle" font-family="Arial, sans-serif" font-size="10" font-weight="bold">User Preferences</text>
    <text x="75" y="185" text-anchor="middle" font-family="Arial, sans-serif" font-size="8">Music, Nature, Abstract</text>
  </g>
  
  <!-- Neural Network Generation Model -->
  <g transform="translate(300, 150)">
    <rect width="200" height="250" rx="10" ry="10" fill="#f8f9fa" stroke="#dee2e6" stroke-width="2" />
    <text x="100" y="30" text-anchor="middle" font-family="Arial, sans-serif" font-size="14" font-weight="bold">Hybrid Generation Model</text>
    
    <!-- GAN Model -->
    <g transform="translate(50, 70)">
      <rect width="100" height="60" rx="5" ry="5" fill="#e6f3ff" stroke="#bdd7ee" stroke-width="1" />
      <text x="50" y="20" text-anchor="middle" font-family="Arial, sans-serif" font-size="12" font-weight="bold">GAN</text>
      <text x="50" y="40" text-anchor="middle" font-family="Arial, sans-serif" font-size="10">Generator</text>
      <text x="50" y="55" text-anchor="middle" font-family="Arial, sans-serif" font-size="10">Discriminator</text>
      <path d="M 20 30 L 80 30" stroke="#3498db" stroke-width="1" stroke-dasharray="3" />
      <circle cx="20" cy="30" r="3" fill="#3498db" />
      <circle cx="80" cy="30" r="3" fill="#3498db" />
    </g>
    
    <!-- VAE Model -->
    <g transform="translate(50, 150)">
      <rect width="100" height="60" rx="5" ry="5" fill="#e8f8f5" stroke="#d1f2eb" stroke-width="1" />
      <text x="50" y="20" text-anchor="middle" font-family="Arial, sans-serif" font-size="12" font-weight="bold">VAE</text>
      <text x="50" y="40" text-anchor="middle" font-family="Arial, sans-serif" font-size="10">Encoder</text>
      <text x="50" y="55" text-anchor="middle" font-family="Arial, sans-serif" font-size="10">Decoder</text>
      <path d="M 20 30 L 80 30" stroke="#2ecc71" stroke-width="1" stroke-dasharray="3" />
      <circle cx="20" cy="30" r="3" fill="#2ecc71" />
      <circle cx="80" cy="30" r="3" fill="#2ecc71" />
    </g>
    
    <!-- Gears for processing -->
    <path class="gear" d="M 30 240 m -10, 0 a 10,10 0 1,0 20,0 a 10,10 0 1,0 -20,0 M 30 240 l 0 -7 M 30 240 l 7 0 M 30 240 l 0 7 M 30 240 l -7 0" fill="none" stroke="#6c757d" stroke-width="2" />
    <path class="gear" d="M 50 220 m -8, 0 a 8,8 0 1,0 16,0 a 8,8 0 1,0 -16,0 M 50 220 l 0 -6 M 50 220 l 6 0 M 50 220 l 0 6 M 50 220 l -6 0" fill="none" stroke="#6c757d" stroke-width="2" />
    <path class="gear" d="M 170 240 m -10, 0 a 10,10 0 1,0 20,0 a 10,10 0 1,0 -20,0 M 170 240 l 0 -7 M 170 240 l 7 0 M 170 240 l 0 7 M 170 240 l -7 0" fill="none" stroke="#6c757d" stroke-width="2" />
    <path class="gear" d="M 150 220 m -8, 0 a 8,8 0 1,0 16,0 a 8,8 0 1,0 -16,0 M 150 220 l 0 -6 M 150 220 l 6 0 M 150 220 l 0 6 M 150 220 l -6 0" fill="none" stroke="#6c757d" stroke-width="2" />
  </g>
  
  <!-- Output Content -->
  <g transform="translate(550, 150)">
    <rect width="200" height="250" rx="10" ry="10" fill="#f7f9fd" stroke="#d4e6f1" stroke-width="2" />
    <text x="100" y="30" text-anchor="middle" font-family="Arial, sans-serif" font-size="14" font-weight="bold">Generated Content</text>
    
    <!-- Image output -->
    <g transform="translate(30, 60)" class="output">
      <rect width="60" height="60" rx="5" ry="5" fill="#fef9e7" stroke="#fcf3cf" stroke-width="1" />
      <path d="M 10 40 Q 20 20, 30 35 Q 40 50, 50 30" stroke="#f1c40f" stroke-width="2" fill="none" />
      <circle cx="20" cy="25" r="8" fill="#f39c12" />
      <text x="30" y="70" text-anchor="middle" font-family="Arial, sans-serif" font-size="10">Image</text>
    </g>
    
    <!-- Music output -->
    <g transform="translate(110, 60)" class="output">
      <rect width="60" height="60" rx="5" ry="5" fill="#ebf5fb" stroke="#d6eaf8" stroke-width="1" />
      <path class="wavy" d="M 10 30 Q 25 20, 40 30 Q 55 40, 70 30" stroke="#3498db" stroke-width="2" fill="none" />
      <text x="30" y="70" text-anchor="middle" font-family="Arial, sans-serif" font-size="10">Music</text>
    </g>
    
    <!-- Text output -->
    <g transform="translate(30, 150)" class="output">
      <rect width="60" height="60" rx="5" ry="5" fill="#eafaf1" stroke="#d5f5e3" stroke-width="1" />
      <line x1="10" y1="20" x2="50" y2="20" stroke="#2ecc71" stroke-width="1" />
      <line x1="10" y1="30" x2="40" y2="30" stroke="#2ecc71" stroke-width="1" />
      <line x1="10" y1="40" x2="45" y2="40" stroke="#2ecc71" stroke-width="1" />
      <text x="30" y="70" text-anchor="middle" font-family="Arial, sans-serif" font-size="10">Text</text>
    </g>
    
    <!-- Haptic feedback -->
    <g transform="translate(110, 150)" class="output">
      <rect width="60" height="60" rx="5" ry="5" fill="#fdedec" stroke="#fadbd8" stroke-width="1" />
      <circle cx="30" cy="30" r="15" fill="none" stroke="#e74c3c" stroke-width="2">
        <animate attributeName="r" values="10;20;10" dur="2s" repeatCount="indefinite" />
      </circle>
      <text x="30" y="70" text-anchor="middle" font-family="Arial, sans-serif" font-size="10">Haptic</text>
    </g>
  </g>
  
  <!-- Data flow arrows -->
  <path class="flow-line" d="M 250 250 L 300 250" stroke="#3498db" stroke-width="3" fill="none" />
  <path class="flow-line" d="M 500 250 L 550 250" stroke="#2ecc71" stroke-width="3" fill="none" />
  
  <!-- Neural network nodes and connections in background -->
  <g transform="translate(400, 400)" opacity="0.2">
    <circle cx="0" cy="0" r="5" class="neural-node" fill="#3498db" />
    <circle cx="-50" cy="-30" r="5" class="neural-node" fill="#3498db" />
    <circle cx="50" cy="-30" r="5" class="neural-node" fill="#3498db" />
    <circle cx="-80" cy="10" r="5" class="neural-node" fill="#3498db" />
    <circle cx="80" cy="10" r="5" class="neural-node" fill="#3498db" />
    <line x1="0" y1="0" x2="-50" y2="-30" stroke="#3498db" stroke-width="1" />
    <line x1="0" y1="0" x2="50" y2="-30" stroke="#3498db" stroke-width="1" />
    <line x1="0" y1="0" x2="-80" y2="10" stroke="#3498db" stroke-width="1" />
    <line x1="0" y1="0" x2="80" y2="10" stroke="#3498db" stroke-width="1" />
    <line x1="-50" y1="-30" x2="-80" y2="10" stroke="#3498db" stroke-width="1" />
    <line x1="50" y1="-30" x2="80" y2="10" stroke="#3498db" stroke-width="1" />
  </g>
  
  <!-- Legend -->
  <rect x="300" y="420" width="200" height="60" rx="5" ry="5" fill="white" stroke="#bdc3c7" stroke-width="1" />
  <text x="400" y="440" text-anchor="middle" font-family="Arial, sans-serif" font-size="12" font-weight="bold">Content Types</text>
  <circle cx="320" cy="460" r="6" fill="#f39c12" />
  <text x="340" y="464" text-anchor="start" font-family="Arial, sans-serif" font-size="10">Visual</text>
  <circle cx="380" cy="460" r="6" fill="#3498db" />
  <text x="400" y="464" text-anchor="start" font-family="Arial, sans-serif" font-size="10">Audio</text>
  <circle cx="440" cy="460" r="6" fill="#2ecc71" />
  <text x="460" y="464" text-anchor="start" font-family="Arial, sans-serif" font-size="10">Text</text>
  <circle cx="500" cy="460" r="6" fill="#e74c3c" />
  <text x="520" y="464" text-anchor="start" font-family="Arial, sans-serif" font-size="10">Haptic</text>
</svg>
