<?xml version="1.0" encoding="UTF-8"?>
<svg width="800" height="500" viewBox="0 0 800 500" xmlns="http://www.w3.org/2000/svg">
  <style>
    @keyframes pulse {
      0% { transform: scale(1); }
      50% { transform: scale(1.05); }
      100% { transform: scale(1); }
    }
    @keyframes blink {
      0% { opacity: 0.3; }
      50% { opacity: 1; }
      100% { opacity: 0.3; }
    }
    @keyframes dash {
      to { stroke-dashoffset: -1000; }
    }
    @keyframes float {
      0% { transform: translateY(0px); }
      50% { transform: translateY(-10px); }
      100% { transform: translateY(0px); }
    }
    @keyframes fadeIn {
      from { opacity: 0; }
      to { opacity: 1; }
    }
    .title { font-family: Arial, sans-serif; font-size: 24px; font-weight: bold; animation: fadeIn 2s; }
    .subtitle { font-family: Arial, sans-serif; font-size: 16px; animation: fadeIn 3s; }
    .sensor { animation: pulse 3s infinite; }
    .signal { stroke-dasharray: 10; animation: dash 20s linear infinite; }
    .wave { stroke-dasharray: 5; animation: dash 15s linear infinite; }
    .device { animation: float 4s ease-in-out infinite; }
    .led { animation: blink 2s infinite; }
    .data-point { animation: pulse 2s infinite; }
  </style>

  <!-- Background -->
  <rect width="800" height="500" fill="#f0f9ff" />
  
  <!-- Title -->
  <text x="400" y="50" text-anchor="middle" class="title" fill="#2c3e50">
    Emotion Data Collection Framework
  </text>
  <text x="400" y="80" text-anchor="middle" class="subtitle" fill="#34495e">
    Multi-sensor fusion for comprehensive emotion monitoring
  </text>
  
  <!-- User silhouette -->
  <g transform="translate(400, 250)">
    <!-- Head -->
    <circle cx="0" cy="-40" r="30" fill="#3498db" />
    <!-- Body -->
    <path d="M 0 -10 L 0 60 M -30 20 L 30 20 M 0 60 L -20 120 M 0 60 L 20 120" 
          stroke="#3498db" stroke-width="5" fill="none" />
          
    <!-- Wearable devices -->
    <!-- Smartwatch -->
    <g class="device">
      <rect x="-40" y="20" width="20" height="25" rx="5" ry="5" fill="#e74c3c" stroke="#c0392b" stroke-width="2" />
      <circle cx="-30" cy="30" r="2" class="led" fill="#f1c40f" />
    </g>
    
    <!-- Chest sensor -->
    <g class="device">
      <rect x="-15" y="30" width="30" height="20" rx="5" ry="5" fill="#27ae60" stroke="#16a085" stroke-width="2" />
      <circle cx="0" cy="40" r="2" class="led" fill="#f1c40f" />
    </g>
    
    <!-- Head sensor -->
    <g class="device">
      <path d="M -20 -50 C -30 -70, 30 -70, 20 -50" stroke="#8e44ad" stroke-width="3" fill="none" />
      <circle cx="-10" cy="-60" r="5" fill="#8e44ad" />
      <circle cx="10" cy="-60" r="5" fill="#8e44ad" />
      <circle cx="0" cy="-65" r="3" class="led" fill="#f1c40f" />
    </g>
    
    <!-- Bioimpedance electrodes -->
    <circle cx="-20" cy="25" r="5" class="sensor" fill="#f39c12" stroke="#d35400" stroke-width="1" />
    <circle cx="20" cy="25" r="5" class="sensor" fill="#f39c12" stroke="#d35400" stroke-width="1" />
    
    <!-- Signal waves -->
    <path d="M -80 -40 Q -65 -60, -50 -40 Q -35 -20, -20 -40" 
          class="signal" stroke="#e74c3c" stroke-width="2" fill="none" />
    <path d="M -80 0 Q -70 10, -60 0 Q -50 -10, -40 0 Q -30 10, -20 0" 
          class="signal" stroke="#27ae60" stroke-width="2" fill="none" />
    <path d="M -80 40 L -70 40 L -65 30 L -60 50 L -55 30 L -50 50 L -45 30 L -40 40 L -30 40" 
          class="signal" stroke="#8e44ad" stroke-width="2" fill="none" />
    <path d="M -80 80 Q -65 90, -50 80 T -20 80" 
          class="signal" stroke="#f39c12" stroke-width="2" fill="none" />
  </g>
  
  <!-- Data types -->
  <g transform="translate(600, 180)">
    <rect width="160" height="220" rx="10" ry="10" fill="white" stroke="#bdc3c7" stroke-width="2" />
    <text x="80" y="30" text-anchor="middle" font-family="Arial, sans-serif" font-size="14" font-weight="bold">Data Types</text>
    
    <!-- Heart rate -->
    <circle cx="30" cy="60" r="10" class="data-point" fill="#e74c3c" />
    <text x="100" y="65" text-anchor="middle" font-family="Arial, sans-serif" font-size="12">Heart Rate</text>
    
    <!-- EEG -->
    <circle cx="30" cy="100" r="10" class="data-point" fill="#8e44ad" />
    <text x="100" y="105" text-anchor="middle" font-family="Arial, sans-serif" font-size="12">Brain Waves (EEG)</text>
    
    <!-- Skin conductance -->
    <circle cx="30" cy="140" r="10" class="data-point" fill="#27ae60" />
    <text x="100" y="145" text-anchor="middle" font-family="Arial, sans-serif" font-size="12">Skin Conductance</text>
    
    <!-- Bioimpedance -->
    <circle cx="30" cy="180" r="10" class="data-point" fill="#f39c12" />
    <text x="100" y="185" text-anchor="middle" font-family="Arial, sans-serif" font-size="12">Bioimpedance</text>
    
    <!-- User input -->
    <circle cx="30" cy="220" r="10" class="data-point" fill="#3498db" />
    <text x="100" y="225" text-anchor="middle" font-family="Arial, sans-serif" font-size="12">User Input</text>
  </g>
  
  <!-- Mobile device showing data collection app -->
  <g transform="translate(150, 180)" class="device">
    <rect width="140" height="240" rx="10" ry="10" fill="#34495e" stroke="#2c3e50" stroke-width="3" />
    <rect x="10" y="20" width="120" height="180" rx="2" ry="2" fill="#ecf0f1" />
    
    <!-- App interface -->
    <rect x="20" y="30" width="100" height="20" rx="2" ry="2" fill="#3498db" />
    <text x="70" y="45" text-anchor="middle" font-family="Arial, sans-serif" font-size="10" fill="white">EmotionTracker</text>
    
    <!-- Heart rate display -->
    <text x="30" y="70" font-family="Arial, sans-serif" font-size="8">Heart Rate:</text>
    <path d="M 20 80 L 30 80 L 35 70 L 40 90 L 45 70 L 50 90 L 55 70 L 60 80 L 70 80" 
          class="wave" stroke="#e74c3c" stroke-width="1" fill="none" />
    <text x="90" y="83" font-family="Arial, sans-serif" font-size="8" text-anchor="middle">78 BPM</text>
    
    <!-- EEG display -->
    <text x="30" y="110" font-family="Arial, sans-serif" font-size="8">Brain Waves:</text>
    <path d="M 20 120 Q 30 110, 40 120 Q 50 130, 60 120 T 80 120" 
          class="wave" stroke="#8e44ad" stroke-width="1" fill="none" />
    
    <!-- Skin conductance -->
    <text x="30" y="150" font-family="Arial, sans-serif" font-size="8">Skin Conductance:</text>
    <path d="M 20 160 Q 35 155, 50 160 T 80 160" 
          class="wave" stroke="#27ae60" stroke-width="1" fill="none" />
    
    <!-- Bioimpedance -->
    <text x="30" y="180" font-family="Arial, sans-serif" font-size="8">Bioimpedance:</text>
    <path d="M 20 190 L 30 190 L 35 185 L 40 195 L 45 180 L 50 190 L 80 190" 
          class="wave" stroke="#f39c12" stroke-width="1" fill="none" />
    
    <!-- Home button -->
    <circle cx="70" cy="220" r="10" fill="#bdc3c7" />
  </g>
  
  <!-- Data flow arrows to central system -->
  <path d="M 250 250 C 300 230, 350 220, 370 230" stroke="#3498db" stroke-width="2" stroke-dasharray="5" fill="none" />
  <path d="M 550 250 C 500 230, 450 220, 430 230" stroke="#3498db" stroke-width="2" stroke-dasharray="5" fill="none" />
  
  <!-- Legend -->
  <rect x="320" y="400" width="160" height="80" rx="5" ry="5" fill="white" stroke="#bdc3c7" stroke-width="1" />
  <text x="400" y="420" text-anchor="middle" font-family="Arial, sans-serif" font-size="12" font-weight="bold">Sensors</text>
  <circle cx="350" cy="440" r="6" fill="#e74c3c" />
  <text x="400" y="444" text-anchor="start" font-family="Arial, sans-serif" font-size="10">Cardiac</text>
  <circle cx="350" cy="460" r="6" fill="#8e44ad" />
  <text x="400" y="464" text-anchor="start" font-family="Arial, sans-serif" font-size="10">Neural</text>
  <circle cx="350" cy="480" r="6" fill="#f39c12" />
  <text x="400" y="484" text-anchor="start" font-family="Arial, sans-serif" font-size="10">Bioimpedance</text>
</svg>
